<?xml version="1.0" standalone="no"?>
<!DOCTYPE svg PUBLIC "-//W3C//DTD SVG 20010904//EN"
 "http://www.w3.org/TR/2001/REC-SVG-20010904/DTD/svg10.dtd">
<svg version="1.0" xmlns="http://www.w3.org/2000/svg"
 width="280.000000pt" height="280.000000pt" viewBox="0 0 280.000000 280.000000"
 preserveAspectRatio="xMidYMid meet">
<metadata>
Created by potrace 1.14, written by Peter Selinger 2001-2017
</metadata>
<g transform="translate(0.000000,280.000000) scale(0.100000,-0.100000)"
fill="#000000" stroke="none">
<path d="M1208 2613 c6 -2 18 -2 25 0 6 3 1 5 -13 5 -14 0 -19 -2 -12 -5z"/>
<path d="M1352 2599 c-116 -14 -269 -74 -387 -152 -222 -147 -392 -397 -443
-652 -30 -148 -34 -195 -22 -287 37 -303 116 -466 330 -678 161 -159 354 -269
545 -309 133 -27 163 -31 244 -31 84 0 226 17 321 39 64 15 227 69 274 92 22
10 46 19 53 19 7 0 13 5 13 10 0 6 4 10 9 10 6 0 38 17 73 37 35 21 79 47 98
58 20 11 66 38 103 60 l67 39 0 58 c0 50 -3 58 -19 58 -10 0 -24 -6 -30 -14
-7 -8 -60 -33 -119 -57 -59 -23 -131 -53 -160 -65 -29 -13 -58 -24 -65 -24 -7
0 -17 -4 -22 -9 -6 -4 -32 -13 -60 -20 -27 -7 -66 -16 -85 -21 -19 -5 -87 -14
-150 -20 -93 -8 -136 -8 -225 5 -142 19 -176 25 -200 34 -11 5 -38 14 -60 20
-186 57 -395 200 -526 358 -115 141 -166 249 -189 403 -5 30 -12 75 -16 99
-16 96 32 306 102 441 68 132 126 190 190 190 13 0 26 5 29 10 3 6 19 10 35
10 16 0 32 5 35 10 3 6 25 10 49 10 23 0 47 5 53 11 6 6 62 8 159 6 159 -5
233 -14 249 -28 5 -5 17 -9 27 -9 10 0 26 -4 36 -9 16 -8 31 -15 100 -43 17
-7 32 -16 32 -20 0 -5 9 -8 20 -8 11 0 20 -4 20 -10 0 -5 5 -10 10 -10 20 0
115 -77 175 -142 142 -151 211 -425 143 -565 -6 -13 -9 -26 -5 -29 8 -8 76 88
77 109 0 9 5 17 10 17 6 0 10 9 10 19 0 11 4 22 9 25 30 19 30 303 0 322 -5 3
-9 16 -9 30 0 13 -4 24 -10 24 -5 0 -10 9 -10 20 0 11 -3 20 -8 20 -4 0 -13
12 -19 28 -25 56 -111 153 -172 195 -25 17 -48 33 -51 36 -10 12 -92 51 -106
51 -8 0 -14 5 -14 10 0 6 -11 10 -24 10 -14 0 -28 5 -31 10 -3 6 -21 10 -40
10 -19 0 -36 4 -39 9 -6 9 -133 24 -206 24 -75 0 -220 -15 -226 -25 -3 -4 -17
-8 -31 -8 -33 0 -114 -25 -165 -51 -10 -5 -25 -9 -33 -9 -8 0 -15 -4 -15 -10
0 -5 -9 -10 -19 -10 -11 0 -22 -4 -25 -9 -3 -5 -16 -11 -29 -13 -20 -4 -23 -1
-19 14 6 24 158 98 272 132 137 41 356 54 485 28 213 -43 415 -172 527 -335
72 -105 99 -198 99 -337 0 -100 -11 -145 -55 -224 -30 -54 -25 -58 16 -13 140
155 198 351 153 522 -44 169 -229 348 -450 436 -45 17 -165 49 -210 55 -21 3
-43 8 -48 11 -17 10 -329 12 -405 2z"/>
<path d="M1110 2590 c-8 -5 -25 -10 -37 -10 -13 0 -23 -4 -23 -10 0 -5 -9 -10
-19 -10 -11 0 -23 -4 -26 -10 -3 -5 -17 -10 -31 -10 -13 0 -24 -4 -24 -10 0
-5 -9 -10 -19 -10 -11 0 -21 -3 -23 -7 -2 -5 -23 -18 -47 -31 -81 -42 -106
-57 -136 -84 -16 -16 -34 -28 -39 -28 -10 0 -194 -185 -211 -211 -5 -8 -30
-47 -56 -85 -25 -38 -60 -100 -78 -139 -18 -38 -37 -78 -42 -87 -5 -10 -9 -27
-9 -37 0 -11 -4 -23 -10 -26 -5 -3 -10 -17 -10 -30 0 -13 -4 -26 -9 -29 -9 -6
-12 -22 -33 -176 -14 -108 -14 -154 0 -265 20 -154 24 -175 33 -181 5 -3 9
-14 9 -25 0 -10 4 -27 9 -37 5 -9 13 -28 19 -42 21 -55 107 -220 114 -220 5 0
8 -6 8 -13 0 -7 8 -22 18 -33 9 -10 34 -42 55 -69 70 -91 125 -150 182 -195
31 -25 69 -55 83 -68 15 -12 39 -28 55 -35 15 -6 27 -14 27 -18 0 -3 16 -11
35 -19 19 -8 35 -17 35 -22 0 -4 5 -8 10 -8 6 0 29 -8 53 -19 120 -53 220 -78
359 -90 49 -4 93 -12 100 -19 16 -16 190 -16 206 0 6 6 44 15 84 19 118 13
291 51 356 79 12 6 32 14 45 19 34 13 161 75 167 81 3 3 19 12 35 20 17 8 36
21 43 28 8 6 23 17 35 24 20 10 85 58 113 83 6 6 34 30 63 55 l51 45 0 82 0
82 -26 -24 c-14 -13 -35 -27 -45 -30 -11 -4 -19 -11 -19 -16 0 -5 -5 -9 -11
-9 -6 0 -30 -13 -54 -30 -24 -16 -48 -30 -54 -30 -6 0 -11 -4 -11 -10 0 -5 -6
-10 -14 -10 -8 0 -16 -3 -18 -7 -6 -14 -149 -89 -218 -116 -14 -5 -33 -13 -42
-18 -10 -5 -27 -9 -37 -9 -11 0 -23 -4 -26 -10 -3 -6 -17 -10 -30 -10 -13 0
-27 -5 -30 -10 -3 -5 -21 -10 -39 -10 -17 0 -36 -4 -41 -9 -16 -15 -100 -23
-299 -27 -124 -3 -193 -1 -200 6 -5 5 -27 10 -47 10 -21 0 -41 5 -44 10 -3 6
-17 10 -31 10 -13 0 -32 4 -42 9 -9 5 -28 13 -42 19 -14 5 -51 22 -83 36 -32
14 -60 26 -63 26 -3 0 -25 14 -49 30 -24 17 -46 30 -50 30 -4 0 -12 6 -20 13
-25 23 -55 47 -61 47 -10 0 -219 213 -247 252 -15 20 -32 42 -39 50 -22 24
-71 114 -109 203 -11 26 -33 104 -50 175 -17 73 -16 348 0 420 23 95 42 164
52 182 5 10 9 25 9 33 0 8 5 15 10 15 6 0 10 7 10 15 0 14 18 53 30 65 3 3 16
26 29 53 13 26 28 47 33 47 4 0 8 7 8 15 0 8 4 15 8 15 4 0 16 15 27 33 22 38
153 171 210 213 22 16 42 31 45 34 3 3 14 10 25 16 48 26 70 39 75 44 7 7 96
47 140 63 11 4 9 6 -5 6 -11 0 -27 -4 -35 -9z"/>
</g>
</svg>
